<svg width="500" height="500" viewBox="0 0 500 500" fill="none" xmlns="http://www.w3.org/2000/svg">
<circle cx="250" cy="250" r="250" fill="#D9D9D9"/>
<path d="M350.893 242.07C351.438 300.484 402.415 319.923 402.979 320.17C402.548 321.541 394.834 347.872 376.123 375.07C359.947 398.585 343.159 422.012 316.714 422.498C290.728 422.974 282.372 407.172 252.663 407.172C222.963 407.172 213.679 422.013 189.081 422.974C163.554 423.936 144.115 397.548 127.806 374.119C94.4787 326.196 69.0099 238.7 103.208 179.639C120.197 150.309 150.557 131.736 183.511 131.259C208.578 130.784 232.237 148.033 247.561 148.033C262.876 148.033 291.627 127.289 321.853 130.336C334.507 130.86 370.027 135.42 392.834 168.625C390.996 169.758 350.452 193.233 350.893 242.07ZM302.056 98.6307C315.608 82.3143 324.73 59.6003 322.241 37C302.707 37.7809 279.085 49.9474 265.073 66.2549C252.515 80.6959 241.518 103.81 244.485 125.963C266.259 127.638 288.503 114.957 302.056 98.6307Z" fill="black"/>
</svg>
