<svg xmlns="http://www.w3.org/2000/svg" xmlns:xlink="http://www.w3.org/1999/xlink" width="1080" zoomAndPan="magnify" viewBox="0 0 810 809.999993" height="1080" preserveAspectRatio="xMidYMid meet" version="1.0"><defs><clipPath id="e3c5098a09"><path d="M 714.128906 606.535156 L 810 606.535156 L 810 702.535156 L 714.128906 702.535156 Z M 714.128906 606.535156 " clip-rule="nonzero"/></clipPath></defs><path fill="#AFFC41" d="M 0 741.824219 L 645.636719 96.523438 L 216 96.523438 L 216 0 L 810 0 L 810 594 L 713.476562 594 L 713.476562 164.363281 L 68.175781 810 Z M 0 741.824219 " fill-opacity="1" fill-rule="nonzero"/><g clip-path="url(#e3c5098a09)"><path fill="#AFFC41" d="M 810.128906 654.535156 C 810.128906 656.109375 810.054688 657.675781 809.898438 659.242188 C 809.746094 660.804688 809.515625 662.359375 809.207031 663.902344 C 808.902344 665.441406 808.519531 666.964844 808.0625 668.46875 C 807.605469 669.976562 807.078125 671.453125 806.476562 672.90625 C 805.875 674.359375 805.203125 675.777344 804.460938 677.164062 C 803.722656 678.550781 802.914062 679.898438 802.039062 681.203125 C 801.167969 682.511719 800.230469 683.773438 799.234375 684.988281 C 798.238281 686.203125 797.183594 687.367188 796.070312 688.476562 C 794.960938 689.589844 793.796875 690.644531 792.582031 691.640625 C 791.367188 692.636719 790.105469 693.574219 788.796875 694.445312 C 787.492188 695.320312 786.144531 696.128906 784.757812 696.867188 C 783.371094 697.609375 781.953125 698.28125 780.5 698.882812 C 779.046875 699.484375 777.570312 700.011719 776.0625 700.46875 C 774.558594 700.925781 773.035156 701.308594 771.496094 701.613281 C 769.953125 701.921875 768.398438 702.152344 766.835938 702.304688 C 765.269531 702.460938 763.703125 702.535156 762.128906 702.535156 C 760.558594 702.535156 758.988281 702.460938 757.425781 702.304688 C 755.859375 702.152344 754.308594 701.921875 752.765625 701.613281 C 751.222656 701.308594 749.699219 700.925781 748.195312 700.46875 C 746.691406 700.011719 745.214844 699.484375 743.761719 698.882812 C 742.308594 698.28125 740.890625 697.609375 739.503906 696.867188 C 738.117188 696.128906 736.769531 695.320312 735.464844 694.445312 C 734.15625 693.574219 732.894531 692.636719 731.679688 691.640625 C 730.464844 690.644531 729.300781 689.589844 728.1875 688.476562 C 727.078125 687.367188 726.023438 686.203125 725.027344 684.988281 C 724.027344 683.773438 723.09375 682.511719 722.21875 681.203125 C 721.347656 679.898438 720.539062 678.550781 719.796875 677.164062 C 719.058594 675.777344 718.386719 674.359375 717.785156 672.90625 C 717.183594 671.453125 716.652344 669.976562 716.199219 668.46875 C 715.742188 666.964844 715.359375 665.441406 715.050781 663.902344 C 714.746094 662.359375 714.515625 660.804688 714.363281 659.242188 C 714.207031 657.675781 714.128906 656.109375 714.128906 654.535156 C 714.128906 652.964844 714.207031 651.394531 714.363281 649.832031 C 714.515625 648.265625 714.746094 646.714844 715.050781 645.171875 C 715.359375 643.628906 715.742188 642.105469 716.199219 640.601562 C 716.652344 639.097656 717.183594 637.621094 717.785156 636.167969 C 718.386719 634.714844 719.058594 633.296875 719.796875 631.910156 C 720.539062 630.523438 721.347656 629.175781 722.21875 627.871094 C 723.09375 626.5625 724.027344 625.300781 725.027344 624.085938 C 726.023438 622.871094 727.078125 621.707031 728.1875 620.59375 C 729.300781 619.484375 730.464844 618.429688 731.679688 617.433594 C 732.894531 616.433594 734.15625 615.5 735.464844 614.625 C 736.769531 613.753906 738.117188 612.945312 739.503906 612.203125 C 740.890625 611.464844 742.308594 610.792969 743.761719 610.191406 C 745.214844 609.589844 746.691406 609.058594 748.195312 608.605469 C 749.699219 608.148438 751.222656 607.765625 752.765625 607.457031 C 754.308594 607.152344 755.859375 606.921875 757.425781 606.769531 C 758.988281 606.613281 760.558594 606.535156 762.128906 606.535156 C 763.703125 606.535156 765.269531 606.613281 766.835938 606.769531 C 768.398438 606.921875 769.953125 607.152344 771.496094 607.457031 C 773.035156 607.765625 774.558594 608.148438 776.0625 608.605469 C 777.570312 609.058594 779.046875 609.589844 780.5 610.191406 C 781.953125 610.792969 783.371094 611.464844 784.757812 612.203125 C 786.144531 612.945312 787.492188 613.753906 788.796875 614.625 C 790.105469 615.5 791.367188 616.433594 792.582031 617.433594 C 793.796875 618.429688 794.960938 619.484375 796.070312 620.59375 C 797.183594 621.707031 798.238281 622.871094 799.234375 624.085938 C 800.230469 625.300781 801.167969 626.5625 802.039062 627.871094 C 802.914062 629.175781 803.722656 630.523438 804.460938 631.910156 C 805.203125 633.296875 805.875 634.714844 806.476562 636.167969 C 807.078125 637.621094 807.605469 639.097656 808.0625 640.601562 C 808.519531 642.105469 808.902344 643.628906 809.207031 645.171875 C 809.515625 646.714844 809.746094 648.265625 809.898438 649.832031 C 810.054688 651.394531 810.128906 652.964844 810.128906 654.535156 Z M 810.128906 654.535156 " fill-opacity="1" fill-rule="nonzero"/></g></svg>