<svg width="500" height="500" viewBox="0 0 500 500" fill="none" xmlns="http://www.w3.org/2000/svg">
<circle cx="250" cy="250" r="250" fill="#D9D9D9"/>
<path d="M250 60C199.609 60 151.282 80.0178 115.65 115.65C80.0178 151.282 60 199.609 60 250C60 300.391 80.0178 348.718 115.65 384.35C151.282 419.982 199.609 440 250 440C300.391 440 348.718 419.982 384.35 384.35C419.982 348.718 440 300.391 440 250C440 199.609 419.982 151.282 384.35 115.65C348.718 80.0178 300.391 60 250 60Z" fill="#039BE5"/>
<path d="M275.72 300.36H324.89L332.61 250.41H275.71V223.11C275.71 202.36 282.49 183.96 301.9 183.96H333.09V140.37C327.61 139.63 316.02 138.01 294.12 138.01C248.39 138.01 221.58 162.16 221.58 217.18V250.41H174.57V300.36H221.58V437.65C230.89 439.05 240.32 440 250 440C258.75 440 267.29 439.2 275.72 438.06V300.36Z" fill="white"/>
</svg>
