<svg width="500" height="500" viewBox="0 0 500 500" fill="none" xmlns="http://www.w3.org/2000/svg">
<circle cx="250" cy="250" r="250" fill="#D9D9D9"/>
<path d="M430.925 252.571C430.925 237.439 429.695 226.397 427.033 214.945H253.925V283.245H355.535C353.487 300.218 342.425 325.78 317.841 342.956L317.496 345.243L372.23 387.568L376.022 387.945C410.848 355.84 430.925 308.602 430.925 252.571Z" fill="#4285F4"/>
<path d="M254.171 432.945C303.811 432.945 345.485 416.546 375.925 388.258L317.907 343.16C302.382 354.025 281.544 361.609 254.171 361.609C205.551 361.609 164.286 329.427 149.576 284.945L147.42 285.129L90.667 329.201L89.9248 331.271C120.159 391.537 182.262 432.945 254.171 432.945Z" fill="#34A853"/>
<path d="M148.925 285.487C145.056 273.976 142.817 261.641 142.817 248.896C142.817 236.15 145.056 223.816 148.721 212.305L148.619 209.853L91.3448 164.945L89.4709 165.845C77.0512 190.925 69.9248 219.089 69.9248 248.896C69.9248 278.703 77.0512 306.866 89.4709 331.945L148.925 285.487Z" fill="#FBBC05"/>
<path d="M254.042 136.28C288.539 136.28 311.808 151.244 325.077 163.749L376.925 112.912C345.082 83.1892 303.644 64.9453 254.042 64.9453C182.189 64.9453 120.135 106.352 89.9248 166.618L149.325 212.945C164.228 168.463 205.461 136.28 254.042 136.28Z" fill="#EB4335"/>
</svg>
