<svg width="684" height="684" viewBox="0 0 684 684" fill="#c9c9c9" xmlns="http://www.w3.org/2000/svg">
<path fill-rule="evenodd" clip-rule="evenodd" d="M472 130C472 189.44 432.108 239.562 377.637 255.055C383.832 265.978 391.065 276.065 399.5 284.5C407.935 292.935 418.022 300.168 428.945 306.363C444.438 251.892 494.56 212 554 212C625.797 212 684 270.203 684 342C684 413.797 625.797 472 554 472C494.56 472 444.438 432.108 428.945 377.637C418.022 383.832 407.935 391.065 399.5 399.5C391.065 407.935 383.832 418.022 377.637 428.945C432.108 444.438 472 494.56 472 554C472 625.797 413.797 684 342 684C270.203 684 212 625.797 212 554C212 494.56 251.892 444.438 306.363 428.945C300.168 418.022 292.935 407.935 284.5 399.5C276.065 391.065 265.978 383.832 255.055 377.637C239.562 432.108 189.44 472 130 472C58.203 472 0 413.797 0 342C0 270.203 58.203 212 130 212C189.44 212 239.562 251.892 255.055 306.363C265.978 300.168 276.065 292.935 284.5 284.5C292.935 276.065 300.168 265.978 306.363 255.055C251.892 239.562 212 189.44 212 130C212 58.203 270.203 0 342 0C413.797 0 472 58.203 472 130Z" fill="#c9c9c9"/>
</svg>
